<svg xmlns="http://www.w3.org/2000/svg" viewBox="0 0 1440 320"><path fill="#7f78d2" fill-opacity="1" d="M0,64L24,90.7C48,117,96,171,144,176C192,181,240,139,288,149.3C336,160,384,224,432,213.3C480,203,528,117,576,85.3C624,53,672,75,720,122.7C768,171,816,245,864,282.7C912,320,960,320,1008,304C1056,288,1104,256,1152,208C1200,160,1248,96,1296,64C1344,32,1392,32,1416,32L1440,32L1440,0L1416,0C1392,0,1344,0,1296,0C1248,0,1200,0,1152,0C1104,0,1056,0,1008,0C960,0,912,0,864,0C816,0,768,0,720,0C672,0,624,0,576,0C528,0,480,0,432,0C384,0,336,0,288,0C240,0,192,0,144,0C96,0,48,0,24,0L0,0Z"></path></svg>